<svg xmlns="http://www.w3.org/2000/svg" width="1920" height="1080" viewBox="0 0 1920 1080">
    <defs>
    <linearGradient id="sky" x1="0" y1="0" x2="0" y2="1">
      <stop offset="0%" stop-color="#05070f"/>
      <stop offset="100%" stop-color="#16223f"/>
    </linearGradient></defs><rect width="1920" height="1080" fill="url(#sky)"/><g><circle cx="94.91316102468055" cy="557.5173852874271" r="1.9836201585546656" fill="#ffffff" opacity="0.9123989462378643"/><circle cx="675.8080106251379" cy="32.04278437155606" r="1.395153460175064" fill="#ffffff" opacity="0.6387867179852679"/><circle cx="872.3160728599212" cy="35.40643634880293" r="1.3716674843951067" fill="#ffffff" opacity="0.6047402117421333"/><circle cx="1254.1870587547703" cy="753.8540077869475" r="1.5098926379858608" fill="#ffffff" opacity="0.7652400089491498"/><circle cx="200.6313823917172" cy="510.6197322006555" r="1.6784136064374326" fill="#ffffff" opacity="0.8861211562286693"/><circle cx="693.5337709728744" cy="809.7016200296412" r="1.123238730541956" fill="#ffffff" opacity="0.9564070866031422"/><circle cx="146.00936369723735" cy="272.99222820800867" r="1.7095943347489566" fill="#ffffff" opacity="0.8331616141508188"/><circle cx="1725.4627443037446" cy="312.47199640015134" r="1.4916523368566108" fill="#ffffff" opacity="0.7032572537968069"/><circle cx="893.1291350720917" cy="643.4676808539654" r="0.6114768567822125" fill="#ffffff" opacity="0.6713390623847263"/><circle cx="1574.6381356296497" cy="499.6543312143722" r="0.7215990711367495" fill="#ffffff" opacity="0.6782256464351822"/><circle cx="1133.1362257388184" cy="840.5047100379736" r="2.0237475498139927" fill="#ffffff" opacity="0.8426722290998554"/><circle cx="53.025626752339576" cy="499.83659695874013" r="1.815627540299237" fill="#ffffff" opacity="0.9761855912129433"/><circle cx="671.269551301095" cy="240.8452992021529" r="0.9802366510334217" fill="#ffffff" opacity="0.84017671984348"/><circle cx="1763.258126801541" cy="712.327968774667" r="2.0345639925948986" fill="#ffffff" opacity="0.6329574651310501"/><circle cx="1526.351447471367" cy="152.70669441103158" r="2.055236445677074" fill="#ffffff" opacity="0.6058954608021927"/><circle cx="947.6171683894042" cy="172.04438542861146" r="1.2584047600418176" fill="#ffffff" opacity="0.8514690867284938"/><circle cx="1680.4837981370347" cy="862.3158700870307" r="1.6467292256036048" fill="#ffffff" opacity="0.7396462443559765"/><circle cx="351.70733996147413" cy="53.01199974889048" r="1.86352518459337" fill="#ffffff" opacity="0.9570185247586653"/><circle cx="1605.4675987594253" cy="633.0115453853704" r="0.8966446421757897" fill="#ffffff" opacity="0.9429549365337138"/><circle cx="1681.6147794444623" cy="619.2977248657224" r="0.8450608137889997" fill="#ffffff" opacity="0.9435173175435729"/><circle cx="994.6805123563095" cy="853.1775712948977" r="1.152894997697011" fill="#ffffff" opacity="0.6296324115793315"/><circle cx="14.350958537192824" cy="415.3751181581177" r="2.156104566160026" fill="#ffffff" opacity="0.8770489310198186"/><circle cx="865.80602178329" cy="390.5813397327752" r="1.4830695252867196" fill="#ffffff" opacity="0.7953805215624361"/><circle cx="1821.6123985886697" cy="674.6432479842359" r="1.9056215091699404" fill="#ffffff" opacity="0.775642032813295"/><circle cx="408.86777941303677" cy="259.1613390725776" r="1.1094896642762744" fill="#ffffff" opacity="0.6156926198443865"/><circle cx="109.86015304841764" cy="660.8525391687774" r="0.9749248434543267" fill="#ffffff" opacity="0.7760448233408948"/><circle cx="1827.6131567128443" cy="374.69358784094186" r="0.9332360580407533" fill="#ffffff" opacity="0.7253341217314122"/><circle cx="783.848889374794" cy="671.4034531651823" r="2.1839934014608873" fill="#ffffff" opacity="0.6797391907479627"/><circle cx="95.71260696300669" cy="670.5760776991893" r="1.6076641882161726" fill="#ffffff" opacity="0.907295638907003"/><circle cx="1453.2281437366255" cy="527.4088026235164" r="2.0310620736302774" fill="#ffffff" opacity="0.7697108783074783"/><circle cx="538.3062311749144" cy="692.3254978480095" r="1.3072563140113618" fill="#ffffff" opacity="0.629979833800938"/><circle cx="1688.4783582279667" cy="100.61954993757159" r="1.7620918788903301" fill="#ffffff" opacity="0.7388545507353075"/><circle cx="1749.799135150592" cy="187.2293943530021" r="1.5433754509520397" fill="#ffffff" opacity="0.9600769177037669"/><circle cx="254.71946370085016" cy="2.9768944923127876" r="1.4294280332598523" fill="#ffffff" opacity="0.8195122734004737"/><circle cx="510.2781600531514" cy="514.7112218403067" r="1.7764282947009247" fill="#ffffff" opacity="0.6630303406954966"/><circle cx="902.5028051945706" cy="177.69521184886688" r="1.3614044585291714" fill="#ffffff" opacity="0.8811396596199755"/><circle cx="1490.4927174950362" cy="379.38922330333554" r="0.8522687185982516" fill="#ffffff" opacity="0.7928471154254663"/><circle cx="414.33686619062706" cy="741.266365146779" r="1.8096508362094683" fill="#ffffff" opacity="0.9751731831969309"/><circle cx="786.4975773919075" cy="210.2102034159767" r="1.8246047179999727" fill="#ffffff" opacity="0.6878085027608423"/><circle cx="1004.5952208494746" cy="104.22512895634493" r="0.7741080289961155" fill="#ffffff" opacity="0.7761270741950006"/><circle cx="1311.8014003748676" cy="59.68252158150236" r="1.2035363911408017" fill="#ffffff" opacity="0.8775441528524969"/><circle cx="1.6417274173339536" cy="618.9021634488972" r="1.4606548778155948" fill="#ffffff" opacity="0.6939753061047476"/><circle cx="169.16854183626995" cy="599.7558340456742" r="1.3977687542271093" fill="#ffffff" opacity="0.6194956664769053"/><circle cx="263.34006854151266" cy="674.9410764063626" r="1.043184591875052" fill="#ffffff" opacity="0.9213993215242242"/><circle cx="1411.4902991720942" cy="740.044109386269" r="0.985024710691573" fill="#ffffff" opacity="0.9405955432248134"/><circle cx="1155.392645380837" cy="2.5543483327564402" r="1.342995819583129" fill="#ffffff" opacity="0.6299807736773249"/><circle cx="1411.9710960136167" cy="197.7177116766042" r="0.6221905748204444" fill="#ffffff" opacity="0.8226910456287548"/><circle cx="153.33860767398534" cy="93.24194580200388" r="2.1557542735559787" fill="#ffffff" opacity="0.8624355444205434"/><circle cx="1652.9450956280693" cy="306.89537302984786" r="1.1828370778219472" fill="#ffffff" opacity="0.9294576565660486"/><circle cx="496.8296363765305" cy="626.5480436358721" r="1.8839737347946799" fill="#ffffff" opacity="0.7319008887991747"/><circle cx="1609.4772287749147" cy="204.98806789942748" r="1.7459856729941325" fill="#ffffff" opacity="0.9892843460221883"/><circle cx="1765.4016826566033" cy="271.6285094681209" r="0.8856825997510835" fill="#ffffff" opacity="0.6560933288480668"/><circle cx="713.2624780730757" cy="212.41450106065292" r="1.3152151253220947" fill="#ffffff" opacity="0.7285411415353985"/><circle cx="1201.9689563577017" cy="523.0003130661528" r="1.4297193038886669" fill="#ffffff" opacity="0.9790879213557084"/><circle cx="419.8760047442357" cy="731.1801457940202" r="1.971295586387456" fill="#ffffff" opacity="0.8880760542258797"/><circle cx="1358.0311973167366" cy="674.7046866341611" r="1.548358706592316" fill="#ffffff" opacity="0.8184258393241859"/><circle cx="388.3518645409033" cy="23.671940424074467" r="1.228810370225186" fill="#ffffff" opacity="0.9892752458788642"/><circle cx="743.585814184742" cy="212.86824192570884" r="1.1954793955709264" fill="#ffffff" opacity="0.8196395361367895"/><circle cx="1879.0974796081482" cy="479.89897985124674" r="0.6182909893568329" fill="#ffffff" opacity="0.7681471301718964"/><circle cx="1750.543327414905" cy="429.1448241235212" r="1.133329918299458" fill="#ffffff" opacity="0.8981886186909391"/><circle cx="1874.55461244108" cy="312.9771877746752" r="1.0401777052519423" fill="#ffffff" opacity="0.6045514151919256"/><circle cx="1208.848548232006" cy="618.0913780346583" r="1.3958203146979953" fill="#ffffff" opacity="0.8040894647898662"/><circle cx="1070.5877954840487" cy="473.7359106121448" r="1.6650471989394862" fill="#ffffff" opacity="0.8506926786653037"/><circle cx="965.4868793198569" cy="4.749094189678761" r="0.9722688155338208" fill="#ffffff" opacity="0.9031043997067902"/><circle cx="14.880630563378006" cy="534.8694422626647" r="1.281833829424029" fill="#ffffff" opacity="0.6308693827456578"/><circle cx="259.60449841120777" cy="504.79286720926933" r="2.1361759683286077" fill="#ffffff" opacity="0.7041406219817292"/><circle cx="264.9255933514673" cy="69.24326853277518" r="1.4729480240409583" fill="#ffffff" opacity="0.7211902533892769"/><circle cx="299.97090505680865" cy="856.8294219416499" r="0.7999875589274816" fill="#ffffff" opacity="0.7649595997397646"/><circle cx="758.1125052040476" cy="733.7910864360257" r="1.9770075560951827" fill="#ffffff" opacity="0.8200485009568604"/><circle cx="1557.388600522325" cy="453.80811225572893" r="1.2500686897489486" fill="#ffffff" opacity="0.8657761224402133"/><circle cx="1282.7523217266466" cy="100.6578828185257" r="1.8847035373288858" fill="#ffffff" opacity="0.7065291681237567"/><circle cx="857.1661340400566" cy="459.0278857468463" r="1.0125756683078064" fill="#ffffff" opacity="0.7594041667919733"/><circle cx="564.5994036658466" cy="710.5827254376462" r="0.9308629372994194" fill="#ffffff" opacity="0.9616335870766124"/><circle cx="1548.7191277627053" cy="251.75044443284278" r="0.9018975650097438" fill="#ffffff" opacity="0.8900779611404894"/><circle cx="1377.7503761762493" cy="126.66530836322006" r="1.7990038259988226" fill="#ffffff" opacity="0.8611584777860328"/><circle cx="501.02310619763693" cy="82.6539220612774" r="1.812795752836486" fill="#ffffff" opacity="0.9419343472745986"/><circle cx="1481.991317211143" cy="820.0159190067372" r="1.4739324068495372" fill="#ffffff" opacity="0.8852545648259238"/><circle cx="91.78440702377017" cy="606.6254575967031" r="0.7898532166189268" fill="#ffffff" opacity="0.7524553202673591"/><circle cx="1217.0429686164493" cy="693.1790487339986" r="1.6877789982945104" fill="#ffffff" opacity="0.8166269261023041"/><circle cx="1864.3084397039222" cy="650.7045626698238" r="1.4018617094100556" fill="#ffffff" opacity="0.6212620401950258"/><circle cx="920.1408507250512" cy="122.08420623908631" r="1.908108818388849" fill="#ffffff" opacity="0.6105360008530577"/><circle cx="1095.6411605221756" cy="412.62381819879295" r="2.0837467232299494" fill="#ffffff" opacity="0.9589146350633047"/><circle cx="784.0613654364618" cy="601.7239635230916" r="0.7945689722041432" fill="#ffffff" opacity="0.6910335345505314"/><circle cx="1002.5346286153127" cy="149.85137772825158" r="1.3941095044944307" fill="#ffffff" opacity="0.8728550906820682"/><circle cx="169.2569225248618" cy="630.4557278254118" r="1.260261873878926" fill="#ffffff" opacity="0.9266101364852379"/><circle cx="1787.4461379114555" cy="781.859294455826" r="1.4470141518852047" fill="#ffffff" opacity="0.7644030587945694"/><circle cx="1193.2732644598855" cy="223.52728650632068" r="1.379972197055284" fill="#ffffff" opacity="0.9774602322623389"/><circle cx="226.58330747488534" cy="499.22752041000035" r="1.7094477149654654" fill="#ffffff" opacity="0.6604482659651"/><circle cx="689.4925231618133" cy="47.272499678363886" r="1.2393703845436894" fill="#ffffff" opacity="0.6943950809805189"/><circle cx="165.89362284461387" cy="700.982998786603" r="1.7547545205293482" fill="#ffffff" opacity="0.9584219250970129"/><circle cx="1555.8397461312527" cy="774.528903495277" r="0.7735382450998474" fill="#ffffff" opacity="0.9737394365542642"/><circle cx="1892.5891190857792" cy="642.3692332138789" r="0.6218771469217571" fill="#ffffff" opacity="0.6869454641721181"/><circle cx="1580.2686082629443" cy="431.98131690142094" r="1.2301391196420106" fill="#ffffff" opacity="0.6052207038706771"/><circle cx="1464.2781013772922" cy="768.8984099119714" r="1.179170891840951" fill="#ffffff" opacity="0.8195965386828148"/><circle cx="572.6071040085877" cy="272.3753709012068" r="1.3286490265095456" fill="#ffffff" opacity="0.736755058848016"/><circle cx="497.82929549003813" cy="497.9932105103276" r="1.9024084102825456" fill="#ffffff" opacity="0.8594902943803874"/><circle cx="666.9291429223905" cy="1.4573212566382843" r="1.5117782185793918" fill="#ffffff" opacity="0.6008069785374404"/><circle cx="1425.9162564342982" cy="115.57795151317005" r="1.747142633548937" fill="#ffffff" opacity="0.6051122946562165"/><circle cx="1630.9820774730874" cy="462.88939957509757" r="0.6005446078480512" fill="#ffffff" opacity="0.8947170834402554"/><circle cx="1467.8907387158283" cy="325.7088330790434" r="2.128976124231348" fill="#ffffff" opacity="0.9681899308279419"/><circle cx="1473.3166940225742" cy="423.7826373181983" r="2.0257878048392657" fill="#ffffff" opacity="0.9481261863346061"/><circle cx="722.263035742568" cy="270.6392943376508" r="1.619842448323884" fill="#ffffff" opacity="0.7626921942485023"/><circle cx="1382.5871545864918" cy="818.6588541974987" r="0.7273985614377951" fill="#ffffff" opacity="0.6817607795129564"/><circle cx="656.052352742143" cy="450.4396144710558" r="2.050064320900565" fill="#ffffff" opacity="0.7906400247406483"/><circle cx="769.2457478323378" cy="270.0668757554732" r="0.637603414483218" fill="#ffffff" opacity="0.9712181917547427"/><circle cx="731.2984175103056" cy="267.21504436492495" r="0.9645403064755099" fill="#ffffff" opacity="0.6153365367440241"/><circle cx="124.65297023962187" cy="769.6656177946769" r="0.8091565772110061" fill="#ffffff" opacity="0.6769073464468393"/><circle cx="906.1187916608567" cy="588.8724991763127" r="1.613022891242264" fill="#ffffff" opacity="0.7137147077661032"/><circle cx="1570.5338821196358" cy="316.68133056529956" r="1.9770550376945843" fill="#ffffff" opacity="0.6639732676454985"/><circle cx="1043.2206342288464" cy="474.96998592835956" r="1.9075778652612256" fill="#ffffff" opacity="0.8553133962527595"/><circle cx="820.0756350412224" cy="665.7572754208096" r="1.9915186812687464" fill="#ffffff" opacity="0.9451798809781357"/><circle cx="249.77008135395687" cy="485.5509798965302" r="1.4524477295245735" fill="#ffffff" opacity="0.7171417857063369"/><circle cx="402.99169168369934" cy="450.2760639870692" r="1.584923396466465" fill="#ffffff" opacity="0.8365659504392423"/><circle cx="764.4375077877808" cy="692.4680813340315" r="1.0353257994359086" fill="#ffffff" opacity="0.8766571152066078"/><circle cx="825.3610849194714" cy="602.7053358409258" r="1.7576767725000226" fill="#ffffff" opacity="0.7815452813391093"/><circle cx="397.4205726079439" cy="559.202099624883" r="1.9540476395989588" fill="#ffffff" opacity="0.9338452653466525"/><circle cx="1198.4922576711006" cy="109.25753099055419" r="1.3817473907254192" fill="#ffffff" opacity="0.6599270573012322"/><circle cx="1873.9658283350345" cy="252.17213338878165" r="1.7244432453135436" fill="#ffffff" opacity="0.7114413615406955"/><circle cx="123.36224983805053" cy="735.1670954778771" r="1.3347276182354026" fill="#ffffff" opacity="0.9720780973298384"/><circle cx="284.564379187151" cy="138.14860140719298" r="1.5459574895143195" fill="#ffffff" opacity="0.7160333614723666"/><circle cx="518.7800433044063" cy="559.96219247381" r="1.3209118989104245" fill="#ffffff" opacity="0.9996722298619756"/><circle cx="1087.834193946099" cy="824.7472507778645" r="1.7356586105228669" fill="#ffffff" opacity="0.9455410772580634"/><circle cx="851.2951121305945" cy="688.8400314446601" r="0.9332060879329346" fill="#ffffff" opacity="0.9331287466880699"/><circle cx="1708.5257753848593" cy="330.79607377491897" r="0.722811998732339" fill="#ffffff" opacity="0.910027109051544"/><circle cx="1639.2151015364902" cy="405.73852782449325" r="1.8316666421673902" fill="#ffffff" opacity="0.9282140938854879"/><circle cx="1137.8481680098591" cy="595.851672597419" r="1.8658141953792722" fill="#ffffff" opacity="0.9675449641780691"/><circle cx="1489.4560782418896" cy="717.2152033810471" r="1.5750163183391361" fill="#ffffff" opacity="0.715573215756065"/><circle cx="1493.9419723528838" cy="542.4809032522888" r="1.8805951441872" fill="#ffffff" opacity="0.7861528447789088"/><circle cx="65.90999082343956" cy="597.5136423015582" r="1.8829296980276724" fill="#ffffff" opacity="0.946063024030086"/><circle cx="303.84183234443213" cy="646.2289995476931" r="0.8760909526330152" fill="#ffffff" opacity="0.8708183404114045"/><circle cx="1023.1553731127617" cy="670.0802422156979" r="2.1778458972165247" fill="#ffffff" opacity="0.9517071179885032"/><circle cx="1175.4182069231958" cy="296.4891528259349" r="1.1731354838774428" fill="#ffffff" opacity="0.8220507864768771"/><circle cx="991.6246762235428" cy="406.1658671232404" r="2.0609209223190903" fill="#ffffff" opacity="0.7926421125747305"/><circle cx="1882.1833205234036" cy="210.59531873296146" r="1.9997423376136325" fill="#ffffff" opacity="0.7434318889579365"/><circle cx="1470.1094629525749" cy="848.4685311071495" r="1.1728958880982991" fill="#ffffff" opacity="0.7592098126482824"/><circle cx="56.974920482435394" cy="733.1775236104277" r="2.0665325552258085" fill="#ffffff" opacity="0.7100610952660702"/><circle cx="507.9128117224601" cy="310.8569201429234" r="0.9616941738790376" fill="#ffffff" opacity="0.6920264898102706"/><circle cx="563.002689032427" cy="781.0531115848225" r="0.6720425903679024" fill="#ffffff" opacity="0.635890482752222"/><circle cx="96.99670454588329" cy="299.17202390444555" r="1.4282313948915908" fill="#ffffff" opacity="0.9748538113730133"/><circle cx="1585.1929595025815" cy="244.76881125088045" r="1.8984385163451272" fill="#ffffff" opacity="0.7884202003134311"/><circle cx="1612.099544087334" cy="533.3209842785799" r="1.976651493240841" fill="#ffffff" opacity="0.7023883826577456"/><circle cx="354.37950836242703" cy="173.53794814922517" r="1.9069734194974939" fill="#ffffff" opacity="0.7424349653290601"/><circle cx="1636.2914229329263" cy="625.8519972014873" r="1.3447956237679304" fill="#ffffff" opacity="0.6461537755701522"/><circle cx="1333.2110268314966" cy="537.251344377475" r="2.094815017116764" fill="#ffffff" opacity="0.718339025177237"/><circle cx="344.9941565521875" cy="21.621021693288526" r="1.0238837065477293" fill="#ffffff" opacity="0.8570296708102638"/><circle cx="1535.5886463004579" cy="501.75192116707024" r="0.7752035648459131" fill="#ffffff" opacity="0.6882975906369673"/><circle cx="1687.912392782666" cy="379.87038736210667" r="1.0759652835434932" fill="#ffffff" opacity="0.7503544503010575"/><circle cx="1539.1733275140837" cy="664.2917715460271" r="1.5892605957655972" fill="#ffffff" opacity="0.9542589530597863"/><circle cx="968.1932812030376" cy="755.9210772051389" r="0.9198948724293711" fill="#ffffff" opacity="0.7887943066661106"/><circle cx="611.9517753362671" cy="821.2736053497837" r="1.6277256061763046" fill="#ffffff" opacity="0.9802477189131231"/><circle cx="159.7485945857769" cy="235.27509787722988" r="1.1487791115159283" fill="#ffffff" opacity="0.9819485139171197"/><circle cx="1384.3808226275826" cy="162.21891853331562" r="2.0087393595855283" fill="#ffffff" opacity="0.7764951053089644"/><circle cx="362.6464764417053" cy="617.7199597194531" r="0.6315709131304192" fill="#ffffff" opacity="0.6634987642362286"/><circle cx="976.0532422831377" cy="833.126841508053" r="0.700042799837677" fill="#ffffff" opacity="0.6381544110719543"/><circle cx="1555.9965769492537" cy="263.38539942126107" r="1.8444330739982275" fill="#ffffff" opacity="0.7652932109022708"/><circle cx="728.0286739022307" cy="335.0541776664133" r="1.3423571501465923" fill="#ffffff" opacity="0.6013561288583866"/><circle cx="511.2300558610194" cy="558.7956725028897" r="2.060931974672408" fill="#ffffff" opacity="0.7767512435447416"/><circle cx="1890.5187362647519" cy="0.4924846210798677" r="1.3541594539734292" fill="#ffffff" opacity="0.6473429394446228"/><circle cx="1385.929382599348" cy="656.5614454401463" r="1.2450031499856364" fill="#ffffff" opacity="0.7890340740335646"/><circle cx="1886.547063820249" cy="719.3210109849325" r="1.403578697312211" fill="#ffffff" opacity="0.8696056353388626"/></g><circle cx="1620" cy="220" r="70" fill="#f4f1e0" opacity="0.95"/><circle cx="1590" cy="205" r="70" fill="#05070f" opacity="0.55"/><g><g><circle cx="480" cy="302.40000000000003" r="77" fill="#2b3346" opacity="0.25"/><circle cx="546" cy="291.40000000000003" r="60.50000000000001" fill="#2b3346" opacity="0.25"/><circle cx="414" cy="293.6" r="60.50000000000001" fill="#2b3346" opacity="0.25"/><circle cx="601" cy="311.20000000000005" r="49.50000000000001" fill="#2b3346" opacity="0.25"/><circle cx="359" cy="311.20000000000005" r="49.50000000000001" fill="#2b3346" opacity="0.25"/><circle cx="513" cy="329.90000000000003" r="55.00000000000001" fill="#2b3346" opacity="0.25"/><circle cx="447" cy="329.90000000000003" r="55.00000000000001" fill="#2b3346" opacity="0.25"/></g><g><circle cx="1344" cy="216" r="63" fill="#2b3346" opacity="0.25"/><circle cx="1398" cy="207" r="49.5" fill="#2b3346" opacity="0.25"/><circle cx="1290" cy="208.8" r="49.5" fill="#2b3346" opacity="0.25"/><circle cx="1443" cy="223.2" r="40.5" fill="#2b3346" opacity="0.25"/><circle cx="1245" cy="223.2" r="40.5" fill="#2b3346" opacity="0.25"/><circle cx="1371" cy="238.5" r="45" fill="#2b3346" opacity="0.25"/><circle cx="1317" cy="238.5" r="45" fill="#2b3346" opacity="0.25"/></g><g><circle cx="960" cy="486" r="91" fill="#2b3346" opacity="0.25"/><circle cx="1038" cy="473" r="71.5" fill="#2b3346" opacity="0.25"/><circle cx="882" cy="475.6" r="71.5" fill="#2b3346" opacity="0.25"/><circle cx="1103" cy="496.4" r="58.5" fill="#2b3346" opacity="0.25"/><circle cx="817" cy="496.4" r="58.5" fill="#2b3346" opacity="0.25"/><circle cx="999" cy="518.5" r="65" fill="#2b3346" opacity="0.25"/><circle cx="921" cy="518.5" r="65" fill="#2b3346" opacity="0.25"/></g><g><circle cx="1632" cy="540" r="56" fill="#2b3346" opacity="0.25"/><circle cx="1680" cy="532" r="44" fill="#2b3346" opacity="0.25"/><circle cx="1584" cy="533.6" r="44" fill="#2b3346" opacity="0.25"/><circle cx="1720" cy="546.4" r="36" fill="#2b3346" opacity="0.25"/><circle cx="1544" cy="546.4" r="36" fill="#2b3346" opacity="0.25"/><circle cx="1656" cy="560" r="40" fill="#2b3346" opacity="0.25"/><circle cx="1608" cy="560" r="40" fill="#2b3346" opacity="0.25"/></g></g></svg>