<svg xmlns="http://www.w3.org/2000/svg" width="1920" height="1080" viewBox="0 0 1920 1080">
    <defs>
    <linearGradient id="sky" x1="0" y1="0" x2="0" y2="1">
      <stop offset="0%" stop-color="#1c2230"/>
      <stop offset="100%" stop-color="#3c4658"/>
    </linearGradient></defs><rect width="1920" height="1080" fill="url(#sky)"/><rect width="1920" height="1080" fill="#ffffff" opacity="0.1"/><g><g><circle cx="480" cy="302.40000000000003" r="77" fill="#5a6473" opacity="0.85"/><circle cx="546" cy="291.40000000000003" r="60.50000000000001" fill="#5a6473" opacity="0.85"/><circle cx="414" cy="293.6" r="60.50000000000001" fill="#5a6473" opacity="0.85"/><circle cx="601" cy="311.20000000000005" r="49.50000000000001" fill="#5a6473" opacity="0.85"/><circle cx="359" cy="311.20000000000005" r="49.50000000000001" fill="#5a6473" opacity="0.85"/><circle cx="513" cy="329.90000000000003" r="55.00000000000001" fill="#5a6473" opacity="0.85"/><circle cx="447" cy="329.90000000000003" r="55.00000000000001" fill="#5a6473" opacity="0.85"/></g><g><circle cx="1344" cy="216" r="63" fill="#5a6473" opacity="0.85"/><circle cx="1398" cy="207" r="49.5" fill="#5a6473" opacity="0.85"/><circle cx="1290" cy="208.8" r="49.5" fill="#5a6473" opacity="0.85"/><circle cx="1443" cy="223.2" r="40.5" fill="#5a6473" opacity="0.85"/><circle cx="1245" cy="223.2" r="40.5" fill="#5a6473" opacity="0.85"/><circle cx="1371" cy="238.5" r="45" fill="#5a6473" opacity="0.85"/><circle cx="1317" cy="238.5" r="45" fill="#5a6473" opacity="0.85"/></g><g><circle cx="960" cy="486" r="91" fill="#5a6473" opacity="0.85"/><circle cx="1038" cy="473" r="71.5" fill="#5a6473" opacity="0.85"/><circle cx="882" cy="475.6" r="71.5" fill="#5a6473" opacity="0.85"/><circle cx="1103" cy="496.4" r="58.5" fill="#5a6473" opacity="0.85"/><circle cx="817" cy="496.4" r="58.5" fill="#5a6473" opacity="0.85"/><circle cx="999" cy="518.5" r="65" fill="#5a6473" opacity="0.85"/><circle cx="921" cy="518.5" r="65" fill="#5a6473" opacity="0.85"/></g><g><circle cx="1632" cy="540" r="56" fill="#5a6473" opacity="0.85"/><circle cx="1680" cy="532" r="44" fill="#5a6473" opacity="0.85"/><circle cx="1584" cy="533.6" r="44" fill="#5a6473" opacity="0.85"/><circle cx="1720" cy="546.4" r="36" fill="#5a6473" opacity="0.85"/><circle cx="1544" cy="546.4" r="36" fill="#5a6473" opacity="0.85"/><circle cx="1656" cy="560" r="40" fill="#5a6473" opacity="0.85"/><circle cx="1608" cy="560" r="40" fill="#5a6473" opacity="0.85"/></g></g></svg>